# xmcd CD database file
#
# Track frame offsets:
#	150
#	24727
#	38160
#	58700
#	73800
#	86822
#	98265
#	116467
#	128902
#	147387
#	158360
#	175555
#	197042
#	210825
#	229620
#	246092
#	265652
#
# Disc length: 3832 seconds
#
# Revision: 2
# Processed by: cddbd v1.5.2PL0 Copyright (c) Steve Scherf et al.
# Submitted via: Feurio! 1.68 - http://www.feurio.com
#
DISCID=da0ef611
DTITLE=Various Artist - Living Country Blues CD2 - Lonesome Road Blues
DYEAR=1999
DGENRE=Blues
TTITLE0=Guitar Frank - Lonesome Road Blues
TTITLE1=Archie Edwards - Baby Please Give Me A Break
TTITLE2=Archie Edwards - The`Road Is Rough And Rocky
TTITLE3=Guitar Slim - Come On In My Kitchen
TTITLE4=Flora Molton - Bye And Bye I'm Going To See The King
TTITLE5=Guitar Frank - Chimney Hill Breakdown
TTITLE6=Guitar Frank - Railroad Bill
TTITLE7=Cephas and Wiggins - Chicken Can't Roost Too High For Me
TTITLE8=Cephas and Wiggins - Goin Down The Road Feelin Bad
TTITLE9=Archie`Edwards - Do Lord Remember Me
TTITLE10=Guitar Frank - Jelly Roll Baker
TTITLE11=Guitar Slim - I'm Feelin Lonesome
TTITLE12=Archie Edwards - My Old Schoolmates
TTITLE13=Guitar Slim - Lonesome Home Blues
TTITLE14=Archie Edwards - T For Texas
TTITLE15=Guitar Frank - Diggin My Potatoes
TTITLE16=Flora Molton - Vacation In Heaven
EXTD=
EXTT0=
EXTT1=
EXTT2=
EXTT3=
EXTT4=
EXTT5=
EXTT6=
EXTT7=
EXTT8=
EXTT9=
EXTT10=
EXTT11=
EXTT12=
EXTT13=
EXTT14=
EXTT15=
EXTT16=
PLAYORDER=
